<svg width="18" height="22" viewBox="0 0 18 22" fill="none" xmlns="http://www.w3.org/2000/svg">
<path fill-rule="evenodd" clip-rule="evenodd" d="M13.2913 0.43095C13.2913 1.52869 12.8196 2.62644 12.1528 3.41758C11.4452 4.29449 10.221 4.94628 9.24761 4.94628C9.13612 4.94628 9.02463 4.93127 8.95603 4.9184C8.94316 4.8648 8.91529 4.69757 8.91529 4.53033C8.91529 3.41758 9.4856 2.31984 10.0966 1.62517C10.8749 0.722538 12.1656 0.0407366 13.2505 0C13.2784 0.124354 13.2913 0.278724 13.2913 0.43095ZM17.1163 7.34509C17.143 7.32761 17.1613 7.31562 17.1698 7.309C15.7247 5.23786 13.5292 5.18212 12.9182 5.18212C11.9834 5.18212 11.1466 5.51366 10.4434 5.79229C9.93367 5.99423 9.49414 6.16837 9.13827 6.16837C8.74492 6.16837 8.29459 5.98652 7.79208 5.7836C7.1579 5.52751 6.44062 5.23786 5.64993 5.23786C2.98276 5.23786 0.272705 7.44836 0.272705 11.6164C0.272705 14.2149 1.27397 16.9528 2.51322 18.7152C3.58309 20.2161 4.5136 21.4382 5.84718 21.4382C6.47951 21.4382 6.94313 21.2415 7.43071 21.0347C7.97144 20.8053 8.54165 20.5634 9.40413 20.5634C10.2759 20.5634 10.7967 20.7906 11.2989 21.0096C11.7663 21.2135 12.2175 21.4103 12.9203 21.4103C14.3783 21.4103 15.3367 20.0917 16.2543 18.771C17.2834 17.2702 17.7144 15.7972 17.7273 15.7286C17.6436 15.7007 14.85 14.5751 14.85 11.3934C14.85 8.83134 16.7545 7.58239 17.1163 7.34509Z" fill="white"/>
</svg>
